<svg width="225" height="186" viewBox="0 0 225 186" fill="none" xmlns="http://www.w3.org/2000/svg">
<path d="M100.046 43.8559L100.546 43.8538L100.544 43.3538L100.372 1.53057L100.37 1.03057L99.8699 1.03263C44.5943 1.26055 -0.287344 42.5026 -0.0788793 93.06L0.296809 184.173L0.29887 184.673L0.798866 184.671L100.625 184.259L101.125 184.257L101.123 183.757L100.748 92.6443L100.746 92.1443L100.246 92.1463L46.7434 92.3669C46.9287 65.7351 70.684 43.977 100.046 43.8559Z" stroke="white"/>
<path d="M224.024 43.3447L224.524 43.3426L224.522 42.8426L224.349 1.01937L224.347 0.519371L223.847 0.521433C168.571 0.749352 123.691 41.9914 123.899 92.5488L124.275 183.661L124.277 184.161L124.777 184.159L224.603 183.748L225.103 183.746L225.101 183.246L224.725 92.1331L224.723 91.6331L224.223 91.6351L170.722 91.8557C170.907 65.2238 194.66 43.4658 224.024 43.3447Z" stroke="white"/>
</svg>
