<svg width="40" height="40" viewBox="0 0 40 40" fill="none" xmlns="http://www.w3.org/2000/svg">
<rect width="40" height="40" rx="6" fill="#805ADF"/>
<path d="M19.9531 9.48437C19.9316 9.48828 19.9102 9.49414 19.8906 9.5C19.6582 9.55273 19.4941 9.76172 19.5 10V13C19.498 13.1797 19.5918 13.3477 19.748 13.4395C19.9043 13.5293 20.0957 13.5293 20.2519 13.4395C20.4082 13.3477 20.5019 13.1797 20.5 13V10C20.5059 9.85547 20.4473 9.71679 20.3437 9.61914C20.2383 9.51953 20.0957 9.4707 19.9531 9.48437ZM12.8281 12.4219C12.6406 12.4551 12.4902 12.5918 12.4375 12.7734C12.3848 12.957 12.4394 13.1523 12.5781 13.2813L14.7031 15.4063C14.8242 15.5547 15.0176 15.623 15.2051 15.5801C15.3906 15.5371 15.5371 15.3906 15.5801 15.2051C15.623 15.0176 15.5547 14.8242 15.4062 14.7031L13.2812 12.5781C13.1777 12.4668 13.0273 12.4102 12.875 12.4219C12.8594 12.4219 12.8437 12.4219 12.8281 12.4219ZM27.0156 12.4219C26.9023 12.4375 26.7969 12.4941 26.7187 12.5781L24.5937 14.7031C24.4453 14.8242 24.377 15.0176 24.4199 15.2051C24.4629 15.3906 24.6094 15.5371 24.7949 15.5801C24.9824 15.6231 25.1758 15.5547 25.2969 15.4062L27.4219 13.2812C27.5781 13.1328 27.623 12.9004 27.5312 12.7051C27.4375 12.5078 27.2305 12.3945 27.0156 12.4219ZM19.9531 15C19.9375 15.0039 19.9219 15.0098 19.9062 15.0156C19.875 15.0176 19.8437 15.0234 19.8125 15.0312C19.8066 15.0371 19.8027 15.041 19.7969 15.0469C17.1445 15.1602 15 17.3203 15 20C15 22.752 17.248 25 20 25C22.752 25 25 22.752 25 20C25 17.3301 22.873 15.1777 20.2344 15.0469C20.2168 15.0469 20.2051 15.0312 20.1875 15.0312C20.1367 15.0117 20.084 15.002 20.0312 15C20.0215 15 20.0098 15 20 15C19.9844 15 19.9687 15 19.9531 15ZM19.9687 16C19.9785 16 19.9902 16 20 16C20.0156 16 20.0312 16 20.0469 16C22.2344 16.0254 24 17.8066 24 20C24 22.2109 22.2109 24 20 24C17.791 24 16 22.2109 16 20C16 17.8008 17.7734 16.0176 19.9687 16ZM9.85937 19.5C9.58398 19.5391 9.39062 19.7949 9.42968 20.0703C9.46875 20.3457 9.7246 20.5391 10 20.5H13C13.1797 20.502 13.3477 20.4082 13.4395 20.252C13.5293 20.0957 13.5293 19.9043 13.4395 19.7481C13.3477 19.5918 13.1797 19.4981 13 19.5H10C9.98437 19.5 9.96875 19.5 9.95312 19.5C9.9375 19.5 9.92187 19.5 9.90625 19.5C9.89062 19.5 9.87499 19.5 9.85937 19.5ZM26.8594 19.5C26.584 19.5391 26.3906 19.7949 26.4297 20.0703C26.4687 20.3457 26.7246 20.5391 27 20.5H30C30.1797 20.502 30.3477 20.4082 30.4395 20.252C30.5293 20.0957 30.5293 19.9043 30.4395 19.7481C30.3477 19.5918 30.1797 19.4981 30 19.5H27C26.9844 19.5 26.9688 19.5 26.9531 19.5C26.9375 19.5 26.9219 19.5 26.9062 19.5C26.8906 19.5 26.875 19.5 26.8594 19.5ZM15 24.4375C14.8867 24.4531 14.7812 24.5098 14.7031 24.5938L12.5781 26.7188C12.4297 26.8398 12.3613 27.0332 12.4043 27.2207C12.4473 27.4063 12.5937 27.5527 12.7793 27.5957C12.9668 27.6387 13.1601 27.5703 13.2812 27.4219L15.4062 25.2969C15.5547 25.1543 15.5996 24.9336 15.5195 24.7441C15.4414 24.5547 15.2519 24.4336 15.0469 24.4375C15.0312 24.4375 15.0156 24.4375 15 24.4375ZM24.8437 24.4375C24.6562 24.4707 24.5059 24.6074 24.4531 24.7891C24.4004 24.9727 24.4551 25.168 24.5937 25.2969L26.7187 27.4219C26.8398 27.5703 27.0332 27.6387 27.2207 27.5957C27.4062 27.5527 27.5527 27.4063 27.5957 27.2207C27.6387 27.0332 27.5703 26.8399 27.4219 26.7188L25.2969 24.5938C25.2031 24.4941 25.0742 24.4395 24.9375 24.4375C24.9219 24.4375 24.9062 24.4375 24.8906 24.4375C24.875 24.4375 24.8594 24.4375 24.8437 24.4375ZM19.9531 26.4844C19.9316 26.4883 19.9102 26.4941 19.8906 26.5C19.6582 26.5527 19.4941 26.7617 19.5 27V30C19.498 30.1797 19.5918 30.3477 19.748 30.4395C19.9043 30.5293 20.0957 30.5293 20.2519 30.4395C20.4082 30.3477 20.5019 30.1797 20.5 30V27C20.5059 26.8555 20.4473 26.7168 20.3437 26.6191C20.2383 26.5195 20.0957 26.4707 19.9531 26.4844Z" fill="white"/>
</svg>
